{
  "source": "C:\\Users\\Peter\\Desktop\\stuff\\MIUN\\quantitative_research\\video_compression\\videos\\BVI-HD\\BVI-HD_CDVL_videos\\ORIG\\ParkPlay_1920x1080_50fps.mp4",
  "output": "C:\\Users\\Peter\\Desktop\\stuff\\MIUN\\quantitative_research\\video_compression\\compressed_videos\\BVI-HD\\h264\\8\\ParkPlay_1920x1080_50fps_h264.mp4",
  "codec": "h264",
  "ok": "Input #0, mov,mp4,m4a,3gp,3g2,mj2, from 'C:\\Users\\Peter\\Desktop\\stuff\\MIUN\\quantitative_research\\video_compression\\videos\\BVI-HD\\BVI-HD_CDVL_videos\\ORIG\\ParkPlay_1920x1080_50fps.mp4':\n  Metadata:\n    major_brand     : isom\n    minor_version   : 512\n    compatible_brands: isomiso2avc1mp41\n    encoder         : Lavf54.28.101\n  Duration: 00:00:05.00, start: 0.000000, bitrate: 620563 kb/s\n  Stream #0:0[0x1](und): Video: h264 (High 4:4:4 Predictive) (avc1 / 0x31637661), yuv420p(progressive), 1920x1080, 620558 kb/s, 50 fps, 50 tbr, 50 tbn (default)\n    Metadata:\n      handler_name    : VideoHandler\n      vendor_id       : [0][0][0][0]\n[out#0/mp4 @ 0000026126b89980] Codec AVOption b:a (set bitrate (in bits/s)) has not been used for any stream. The most likely reason is either wrong type (e.g. a video option with no video streams) or that it is a private option of some decoder which was not actually used for any stream.\nStream mapping:\n  Stream #0:0 -> #0:0 (h264 (native) -> h264 (libx264))\nPress [q] to stop, [?] for help\n[libx264 @ 00000261271359c0] using cpu capabilities: MMX2 SSE2Fast SSSE3 SSE4.2 AVX FMA3 BMI2 AVX2\n[libx264 @ 00000261271359c0] profile High, level 5.0, 4:2:0, 8-bit\n[libx264 @ 00000261271359c0] 264 - core 165 r3222 b35605a - H.264/MPEG-4 AVC codec - Copyleft 2003-2025 - http://www.videolan.org/x264.html - options: cabac=1 ref=5 deblock=1:0:0 analyse=0x3:0x113 me=hex subme=8 psy=1 psy_rd=1.00:0.00 mixed_ref=1 me_range=16 chroma_me=1 trellis=2 8x8dct=1 cqm=0 deadzone=21,11 fast_pskip=1 chroma_qp_offset=-2 threads=18 lookahead_threads=3 sliced_threads=0 nr=0 decimate=1 interlaced=0 bluray_compat=0 constrained_intra=0 bframes=3 b_pyramid=2 b_adapt=1 b_bias=0 direct=3 weightb=1 open_gop=0 weightp=2 keyint=250 keyint_min=25 scenecut=40 intra_refresh=0 rc_lookahead=50 rc=cbr mbtree=1 bitrate=8000 ratetol=1.0 qcomp=0.60 qpmin=0 qpmax=69 qpstep=4 vbv_maxrate=8000 vbv_bufsize=8000 nal_hrd=none filler=0 ip_ratio=1.40 aq=1:1.00\nOutput #0, mp4, to 'C:\\Users\\Peter\\Desktop\\stuff\\MIUN\\quantitative_research\\video_compression\\compressed_videos\\BVI-HD\\h264\\8\\ParkPlay_1920x1080_50fps_h264.mp4':\n  Metadata:\n    major_brand     : isom\n    minor_version   : 512\n    compatible_brands: isomiso2avc1mp41\n    encoder         : Lavf62.3.100\n  Stream #0:0(und): Video: h264 (avc1 / 0x31637661), yuv420p(tv, progressive), 1920x1080, q=2-31, 8000 kb/s, 50 fps, 12800 tbn (default)\n    Metadata:\n      encoder         : Lavc62.11.100 libx264\n      handler_name    : VideoHandler\n      vendor_id       : [0][0][0][0]\n    Side data:\n      cpb: bitrate max/min/avg: 8000000/0/8000000 buffer size: 8000000 vbv_delay: N/A\nframe=    0 fps=0.0 q=0.0 size=       0KiB time=N/A bitrate=N/A speed=N/A elapsed=0:00:00.54    \nframe=    0 fps=0.0 q=0.0 size=       0KiB time=N/A bitrate=N/A speed=N/A elapsed=0:00:01.11    \nframe=    0 fps=0.0 q=0.0 size=       0KiB time=N/A bitrate=N/A speed=N/A elapsed=0:00:01.73    \nframe=    0 fps=0.0 q=0.0 size=       0KiB time=N/A bitrate=N/A speed=N/A elapsed=0:00:02.33    \nframe=    5 fps=1.7 q=36.0 size=       0KiB time=00:00:00.06 bitrate=   6.4kbits/s speed=0.021x elapsed=0:00:02.86    \nframe=   18 fps=5.2 q=35.0 size=     256KiB time=00:00:00.30 bitrate=6991.8kbits/s speed=0.0866x elapsed=0:00:03.46    \nframe=   33 fps=8.1 q=35.0 size=     512KiB time=00:00:00.62 bitrate=6765.6kbits/s speed=0.152x elapsed=0:00:04.07    \nframe=   45 fps=9.6 q=35.0 size=     768KiB time=00:00:00.86 bitrate=7316.1kbits/s speed=0.184x elapsed=0:00:04.68    \nframe=   53 fps=9.9 q=36.0 size=     768KiB time=00:00:01.02 bitrate=6168.5kbits/s speed=0.191x elapsed=0:00:05.32    \nframe=   71 fps= 12 q=36.0 size=    1280KiB time=00:00:01.38 bitrate=7598.7kbits/s speed=0.233x elapsed=0:00:05.92    \nframe=   85 fps= 13 q=35.0 size=    1536KiB time=00:00:01.66 bitrate=7580.3kbits/s speed=0.256x elapsed=0:00:06.49    \nframe=   93 fps= 13 q=36.0 size=    1536KiB time=00:00:01.82 bitrate=6913.9kbits/s speed=0.258x elapsed=0:00:07.06    \nframe=  109 fps= 14 q=36.0 size=    1792KiB time=00:00:02.14 bitrate=6860.0kbits/s speed=0.281x elapsed=0:00:07.62    \nframe=  115 fps= 14 q=36.0 size=    2048KiB time=00:00:02.22 bitrate=7557.5kbits/s speed=0.271x elapsed=0:00:08.18    \nframe=  133 fps= 15 q=36.0 size=    2304KiB time=00:00:02.54 bitrate=7431.0kbits/s speed=0.289x elapsed=0:00:08.77    \nframe=  141 fps= 15 q=36.0 size=    2560KiB time=00:00:02.78 bitrate=7543.9kbits/s speed=0.297x elapsed=0:00:09.36    \nframe=  157 fps= 16 q=36.0 size=    2816KiB time=00:00:03.10 bitrate=7441.6kbits/s speed=0.312x elapsed=0:00:09.94    \nframe=  167 fps= 16 q=36.0 size=    3072KiB time=00:00:03.26 bitrate=7719.7kbits/s speed=0.31x elapsed=0:00:10.51    \nframe=  181 fps= 16 q=36.0 size=    3328KiB time=00:00:03.58 bitrate=7615.5kbits/s speed=0.322x elapsed=0:00:11.12    \nframe=  197 fps= 17 q=36.0 size=    3584KiB time=00:00:03.84 bitrate=7646.0kbits/s speed=0.328x elapsed=0:00:11.69    \nframe=  209 fps= 17 q=35.0 size=    3840KiB time=00:00:04.14 bitrate=7598.5kbits/s speed=0.339x elapsed=0:00:12.22    \nframe=  229 fps= 18 q=32.0 size=    4096KiB time=00:00:04.54 bitrate=7390.9kbits/s speed=0.355x elapsed=0:00:12.78    \nframe=  233 fps= 17 q=33.0 size=    4352KiB time=00:00:04.62 bitrate=7716.9kbits/s speed=0.346x elapsed=0:00:13.35    \n[mp4 @ 0000026126b89a80] Starting second pass: moving the moov atom to the beginning of the file\n[out#0/mp4 @ 0000026126b89980] video:4738KiB audio:0KiB subtitle:0KiB other streams:0KiB global headers:0KiB muxing overhead: 0.080603%\nframe=  250 fps= 18 q=-1.0 Lsize=    4742KiB time=00:00:04.96 bitrate=7832.4kbits/s speed=0.362x elapsed=0:00:13.69    \n[libx264 @ 00000261271359c0] frame I:1     Avg QP:31.56  size:116222\n[libx264 @ 00000261271359c0] frame P:63    Avg QP:33.92  size: 45289\n[libx264 @ 00000261271359c0] frame B:186   Avg QP:37.36  size: 10118\n[libx264 @ 00000261271359c0] consecutive B-frames:  0.8%  0.0%  0.0% 99.2%\n[libx264 @ 00000261271359c0] mb I  I16..4: 26.3% 63.6% 10.1%\n[libx264 @ 00000261271359c0] mb P  I16..4:  1.8%  9.0%  0.8%  P16..4: 42.2% 16.5%  8.9%  0.0%  0.0%    skip:20.7%\n[libx264 @ 00000261271359c0] mb B  I16..4:  0.1%  0.4%  0.0%  B16..8: 51.2%  4.3%  0.8%  direct: 1.5%  skip:41.7%  L0:42.7% L1:54.3% BI: 3.0%\n[libx264 @ 00000261271359c0] 8x8 transform intra:76.2% inter:63.3%\n[libx264 @ 00000261271359c0] direct mvs  spatial:94.6% temporal:5.4%\n[libx264 @ 00000261271359c0] coded y,uvDC,uvAC intra: 58.1% 59.1% 21.0% inter: 9.7% 8.4% 0.5%\n[libx264 @ 00000261271359c0] i16 v,h,dc,p: 12% 22%  3% 63%\n[libx264 @ 00000261271359c0] i8 v,h,dc,ddl,ddr,vr,hd,vl,hu:  4%  4%  3% 14% 19% 14% 18% 11% 12%\n[libx264 @ 00000261271359c0] i4 v,h,dc,ddl,ddr,vr,hd,vl,hu:  3%  4%  2% 13% 19% 13% 19% 11% 15%\n[libx264 @ 00000261271359c0] i8c dc,h,v,p: 40% 20% 15% 25%\n[libx264 @ 00000261271359c0] Weighted P-Frames: Y:1.6% UV:1.6%\n[libx264 @ 00000261271359c0] ref P L0: 63.2% 14.6% 13.1%  4.4%  4.6%  0.1%\n[libx264 @ 00000261271359c0] ref B L0: 94.3%  4.2%  1.1%  0.4%\n[libx264 @ 00000261271359c0] ref B L1: 98.7%  1.3%\n[libx264 @ 00000261271359c0] kb/s:7762.29\n",
  "seconds": 14.20292353630066,
  "probe_out": {}
}